<?xml version="1.0" encoding="UTF-8" standalone="no"?>
<!DOCTYPE svg PUBLIC "-//W3C//DTD SVG 1.1//EN"
 "http://www.w3.org/Graphics/SVG/1.1/DTD/svg11.dtd">
<!-- Generated by graphviz version 2.43.0 (0)
 -->
<!-- Title: pastafarianism Pages: 1 -->
<svg width="239pt" height="136pt"
 viewBox="0.00 0.00 238.66 136.00" xmlns="http://www.w3.org/2000/svg" xmlns:xlink="http://www.w3.org/1999/xlink">
<g id="graph0" class="graph" transform="scale(1 1) rotate(0) translate(4 132)">
<title>pastafarianism</title>
<polygon fill="white" stroke="transparent" points="-4,4 -4,-132 234.66,-132 234.66,4 -4,4"/>
<!-- demo_parallel -->
<g id="node1" class="node">
<title>demo_parallel</title>
<polygon fill="gold" stroke="black" points="208.45,-128 60.32,-128 22.22,-72 170.34,-72 208.45,-128"/>
<text text-anchor="middle" x="115.33" y="-102.8" font-family="Times,serif" font-size="9.00">⚡ demo_parallel</text>
<text text-anchor="middle" x="115.33" y="-92.8" font-family="Times,serif" font-size="9.00">SuccessOnAll</text>
</g>
<!-- Action 1 -->
<g id="node2" class="node">
<title>Action 1</title>
<ellipse fill="gray" stroke="black" cx="32.33" cy="-18" rx="32.16" ry="18"/>
<text text-anchor="middle" x="32.33" y="-15.8" font-family="Times,serif" font-size="9.00">Action 1</text>
</g>
<!-- demo_parallel&#45;&gt;Action 1 -->
<g id="edge1" class="edge">
<title>demo_parallel&#45;&gt;Action 1</title>
<path fill="none" stroke="black" d="M87.23,-71.92C76.84,-61.9 65.2,-50.68 55.31,-41.15"/>
<polygon fill="black" stroke="black" points="57.45,-38.35 47.82,-33.93 52.59,-43.39 57.45,-38.35"/>
</g>
<!-- Action 2 -->
<g id="node3" class="node">
<title>Action 2</title>
<ellipse fill="gray" stroke="black" cx="115.33" cy="-18" rx="32.16" ry="18"/>
<text text-anchor="middle" x="115.33" y="-15.8" font-family="Times,serif" font-size="9.00">Action 2</text>
</g>
<!-- demo_parallel&#45;&gt;Action 2 -->
<g id="edge2" class="edge">
<title>demo_parallel&#45;&gt;Action 2</title>
<path fill="none" stroke="black" d="M115.33,-71.92C115.33,-63.72 115.33,-54.72 115.33,-46.49"/>
<polygon fill="black" stroke="black" points="118.83,-46.27 115.33,-36.27 111.83,-46.27 118.83,-46.27"/>
</g>
<!-- Action 3 -->
<g id="node4" class="node">
<title>Action 3</title>
<ellipse fill="gray" stroke="black" cx="198.33" cy="-18" rx="32.16" ry="18"/>
<text text-anchor="middle" x="198.33" y="-15.8" font-family="Times,serif" font-size="9.00">Action 3</text>
</g>
<!-- demo_parallel&#45;&gt;Action 3 -->
<g id="edge3" class="edge">
<title>demo_parallel&#45;&gt;Action 3</title>
<path fill="none" stroke="black" d="M143.43,-71.92C153.82,-61.9 165.47,-50.68 175.35,-41.15"/>
<polygon fill="black" stroke="black" points="178.07,-43.39 182.84,-33.93 173.21,-38.35 178.07,-43.39"/>
</g>
</g>
</svg>
